<svg width="210" height="40" viewBox="0 0 210 40" fill="none" xmlns="http://www.w3.org/2000/svg">
<g clip-path="url(#clip0)">
<path d="M82.5625 39.4729H56.8251V1.65683H82.5625V9.23079H64.3434V16.8048H76.6782V24.368H64.3434V31.9097H82.5625V39.4729Z" fill="#353535"/>
<path d="M94.2672 39.4728L83.5878 11.2318H91.7255L97.8555 28.8434L103.953 11.2318H112.123L101.444 39.4728H94.2672Z" fill="#353535"/>
<path d="M141.128 25.0995C141.128 27.2082 140.755 29.177 140.007 30.9952C139.26 32.8133 138.234 34.3841 136.942 35.7181C135.65 37.0414 134.133 38.0958 132.403 38.8596C130.663 39.6235 128.804 40.0108 126.818 40.0108C124.842 40.0108 122.995 39.6235 121.254 38.8596C119.513 38.0958 117.997 37.0522 116.694 35.7181C115.391 34.3948 114.366 32.8133 113.618 30.9952C112.871 29.177 112.497 27.2082 112.497 25.0995C112.497 22.9586 112.871 20.9683 113.618 19.1393C114.366 17.3104 115.391 15.7289 116.694 14.4056C117.997 13.0823 119.513 12.0387 121.254 11.2856C122.995 10.5326 124.842 10.156 126.818 10.156C128.804 10.156 130.673 10.511 132.403 11.2211C134.144 11.9312 135.65 12.9425 136.942 14.255C138.234 15.5675 139.26 17.1383 140.007 18.978C140.755 20.8069 141.128 22.851 141.128 25.0995ZM133.931 25.0995C133.931 23.9376 133.738 22.894 133.365 21.9473C132.991 21.0113 132.478 20.1937 131.837 19.5266C131.197 18.8596 130.438 18.3324 129.573 17.9667C128.708 17.6116 127.79 17.4287 126.807 17.4287C125.825 17.4287 124.906 17.6116 124.041 17.9667C123.176 18.3217 122.429 18.8489 121.788 19.5266C121.147 20.2044 120.645 21.0113 120.282 21.9473C119.919 22.8833 119.738 23.9376 119.738 25.0995C119.738 26.1861 119.919 27.1974 120.282 28.1334C120.645 29.0694 121.147 29.8763 121.788 30.5541C122.429 31.2319 123.176 31.7805 124.041 32.1786C124.906 32.5767 125.825 32.7703 126.807 32.7703C127.79 32.7703 128.708 32.5874 129.573 32.2109C130.438 31.8451 131.197 31.3287 131.837 30.6509C132.478 29.9731 132.991 29.177 133.365 28.2195C133.738 27.2943 133.931 26.2507 133.931 25.0995Z" fill="#353535"/>
<path d="M152.278 39.4728H145.08V0H152.278V39.4728Z" fill="#353535"/>
<path d="M165.68 39.4728L155.001 11.2318H163.139L169.269 28.8434L175.367 11.2318H183.536L172.857 39.4728H165.68Z" fill="#353535"/>
<path d="M196.597 32.5659C196.875 32.6519 197.153 32.7057 197.441 32.738C197.729 32.7703 197.996 32.781 198.285 32.781C198.979 32.781 199.652 32.6842 200.303 32.4906C200.944 32.2969 201.553 32.0172 202.119 31.6622C202.685 31.3071 203.197 30.866 203.635 30.3389C204.073 29.8117 204.447 29.2415 204.724 28.6068L209.957 33.9107C209.295 34.8574 208.526 35.7073 207.672 36.4712C206.807 37.2243 205.878 37.8698 204.874 38.397C203.87 38.9241 202.813 39.3222 201.702 39.6019C200.591 39.8709 199.459 40.0107 198.285 40.0107C196.309 40.0107 194.461 39.6449 192.721 38.9026C190.98 38.1603 189.463 37.1382 188.161 35.8149C186.858 34.4916 185.832 32.9317 185.085 31.1027C184.337 29.2845 183.964 27.2835 183.964 25.0995C183.964 22.8617 184.337 20.8284 185.085 18.9779C185.832 17.1275 186.858 15.5567 188.161 14.255C189.463 12.9532 190.98 11.9419 192.721 11.2211C194.461 10.5002 196.309 10.1345 198.285 10.1345C199.449 10.1345 200.591 10.2743 201.713 10.554C202.823 10.8338 203.891 11.2426 204.895 11.7697C205.899 12.2969 206.839 12.9424 207.715 13.7063C208.59 14.4701 209.359 15.3308 210.021 16.2775L196.597 32.5659ZM200.26 17.7192C199.929 17.6008 199.598 17.5148 199.278 17.4825C198.957 17.4502 198.616 17.4287 198.274 17.4287C197.291 17.4287 196.373 17.6116 195.508 17.9666C194.643 18.3217 193.895 18.8381 193.255 19.5051C192.614 20.1721 192.112 20.979 191.749 21.915C191.386 22.851 191.204 23.9161 191.204 25.0887C191.204 25.3577 191.215 25.6482 191.247 25.9817C191.279 26.3152 191.322 26.6595 191.375 26.993C191.439 27.3373 191.514 27.6708 191.599 27.9828C191.685 28.2948 191.802 28.5852 191.941 28.8327L200.26 17.7192Z" fill="#353535"/>
<path d="M41.1585 27.7784H15.0793L12.4095 25.0888V1.46317H17.7492V22.3991H41.1585V27.7784Z" fill="#CB3727"/>
<path d="M33.2984 39.7956H27.9587V17.1705H0V11.7913H30.6286L33.2984 14.4809V39.7956Z" fill="#CB3727"/>
</g>
<defs>
<clipPath id="clip0">
<rect width="210" height="40" fill="white"/>
</clipPath>
</defs>
</svg>
