<svg width="70" height="70" viewBox="0 0 70 70" fill="none" xmlns="http://www.w3.org/2000/svg">
<path d="M44.8408 15.311C41.8252 15.311 39.3777 12.8636 39.3777 9.84799C39.3777 6.83238 41.8252 4.37036 44.8408 4.37036C47.8564 4.37036 50.3039 6.81781 50.3039 9.83342C50.3039 12.849 47.8564 15.311 44.8408 15.311ZM44.8408 6.57015C43.0344 6.57015 41.563 8.04154 41.563 9.84799C41.563 11.6544 43.0344 13.1258 44.8408 13.1258C46.6473 13.1258 48.1186 11.6544 48.1186 9.84799C48.1186 8.04154 46.6473 6.57015 44.8408 6.57015Z" fill="#FFA500" fill-opacity="0.81"/>
<path d="M33.9001 38.285C33.7398 38.285 33.5796 38.2559 33.4339 38.1831C32.8949 37.9208 32.6618 37.2653 32.9095 36.7263L43.8501 13.7523C44.1124 13.2132 44.7534 12.9802 45.307 13.2278C45.846 13.49 46.0791 14.1456 45.8314 14.6846L34.8907 37.6586C34.7013 38.052 34.3226 38.285 33.9001 38.285Z" fill="#FFA500" fill-opacity="0.81"/>
<path d="M33.9147 40.4703C33.3174 40.4703 32.8221 39.975 32.8221 39.3777V29.5296C32.8221 28.9178 33.3174 28.437 33.9147 28.437C34.5266 28.437 35.0073 28.9323 35.0073 29.5296V39.3777C35.0073 39.975 34.512 40.4703 33.9147 40.4703Z" fill="#FFA500" fill-opacity="0.81"/>
<path d="M55.7815 38.2851C55.3736 38.2851 54.9802 38.052 54.7909 37.6587L43.8502 14.6847C43.5879 14.1456 43.821 13.4901 44.3746 13.2279C44.9282 12.9656 45.5692 13.1987 45.8314 13.7523L56.7721 36.7263C57.0343 37.2653 56.8013 37.9209 56.2477 38.1831C56.102 38.2559 55.9417 38.2851 55.7815 38.2851Z" fill="#FFA500" fill-opacity="0.81"/>
<path d="M33.9001 30.6222C33.7398 30.6222 33.5796 30.5931 33.4339 30.5202C32.8949 30.258 32.6618 29.6024 32.9095 29.0634L40.7908 12.514C41.0531 11.975 41.7086 11.7419 42.2476 11.9895C42.7867 12.2518 43.0198 12.9073 42.7721 13.4463L34.8907 29.9958C34.7013 30.3891 34.3226 30.6222 33.9001 30.6222Z" fill="#FFA500" fill-opacity="0.81"/>
<path d="M55.7815 30.6222C55.3736 30.6222 54.9802 30.3891 54.7908 29.9957L46.9095 13.4317C46.6472 12.8927 46.8803 12.2371 47.4339 11.9749C47.9875 11.7127 48.6285 11.9458 48.8907 12.4994L56.7721 29.0634C57.0343 29.6024 56.8012 30.258 56.2476 30.5202C56.102 30.5785 55.9417 30.6222 55.7815 30.6222Z" fill="#FFA500" fill-opacity="0.81"/>
<path d="M55.7815 40.4703C55.1696 40.4703 54.6889 39.975 54.6889 39.3777V29.5296C54.6889 28.9178 55.1842 28.437 55.7815 28.437C56.3788 28.437 56.8741 28.9323 56.8741 29.5296V39.3777C56.8741 39.975 56.3933 40.4703 55.7815 40.4703Z" fill="#FFA500" fill-opacity="0.81"/>
<path d="M44.8699 10.9406C44.2726 10.9406 43.7773 10.4453 43.7773 9.84798C43.7773 9.25069 44.2581 8.75537 44.8699 8.75537H44.8845C45.4818 8.75537 45.9771 9.25069 45.9771 9.84798C45.9771 10.4453 45.4672 10.9406 44.8699 10.9406Z" fill="#FFA500" fill-opacity="0.81"/>
<path d="M44.8408 6.5702C44.2435 6.5702 43.7482 6.07488 43.7482 5.47759V1.10714C43.7482 0.509844 44.2435 0.0145264 44.8408 0.0145264C45.4526 0.0145264 45.9334 0.509844 45.9334 1.10714V5.47759C45.9334 6.07488 45.4526 6.5702 44.8408 6.5702Z" fill="#FFA500" fill-opacity="0.81"/>
<path d="M35.4735 27.3444H32.8221C32.2102 27.3444 31.7295 26.8491 31.7295 26.2518C31.7295 25.6545 32.2248 25.1592 32.8221 25.1592H35.4735C36.0853 25.1592 36.5661 25.6545 36.5661 26.2518C36.5661 26.8637 36.0708 27.3444 35.4735 27.3444Z" fill="#FFA500" fill-opacity="0.81"/>
<path d="M50.5806 27.3444H39.1155C38.5036 27.3444 38.0229 26.8491 38.0229 26.2518C38.0229 25.6545 38.5182 25.1592 39.1155 25.1592H50.5806C51.1925 25.1592 51.6733 25.6545 51.6733 26.2518C51.6733 26.8637 51.1779 27.3444 50.5806 27.3444Z" fill="#FFA500" fill-opacity="0.81"/>
<path d="M56.8741 27.3444H54.2227C53.6254 27.3444 53.1301 26.8491 53.1301 26.2518C53.1301 25.6545 53.6254 25.1592 54.2227 25.1592H56.8741C57.4859 25.1592 57.9667 25.6545 57.9667 26.2518C57.9813 26.8637 57.4859 27.3444 56.8741 27.3444Z" fill="#FFA500" fill-opacity="0.81"/>
<path d="M4.39959 65.6149C3.80229 65.6149 3.30698 65.1196 3.30698 64.5223C3.30698 63.925 3.78773 63.4297 4.39959 63.4297H4.41416C5.01145 63.4297 5.50677 63.925 5.50677 64.5223C5.4922 65.1342 5.01145 65.6149 4.39959 65.6149Z" fill="#FFA500" fill-opacity="0.81"/>
<path d="M66.7222 54.0916C66.3434 54.0916 65.9792 53.9022 65.7752 53.5525C65.4693 53.0281 65.6587 52.358 66.1686 52.052C67.1884 51.4693 67.8148 50.3767 67.8148 49.2112C67.8148 47.4048 66.3434 45.9334 64.5369 45.9334C63.9397 45.9334 63.4443 45.4381 63.4443 44.8408C63.4443 44.2435 63.9397 43.7482 64.5369 43.7482C67.5526 43.7482 70 46.1956 70 49.2112C70 51.1634 68.9511 52.9698 67.2612 53.9459C67.0864 54.0479 66.897 54.0916 66.7222 54.0916Z" fill="#FFA500" fill-opacity="0.81"/>
<path d="M37.1925 70C36.7992 70 36.4204 69.796 36.231 69.4318C35.9397 68.9074 36.1436 68.2372 36.6826 67.9459L66.2123 52.052C66.7368 51.7606 67.4069 51.9646 67.6982 52.5036C67.9896 53.0281 67.7857 53.6982 67.2466 53.9896L37.7024 69.8689C37.5422 69.9563 37.3673 70 37.1925 70Z" fill="#FFA500" fill-opacity="0.81"/>
<path d="M37.1925 69.9999C37.1488 69.9999 37.0905 69.9999 37.0468 69.9853L12.9802 66.7075C12.3829 66.6201 11.9605 66.0811 12.0479 65.4692C12.1353 64.8719 12.6743 64.4494 13.2862 64.5368L37.3382 67.8147C37.9355 67.9021 38.358 68.4411 38.2705 69.053C38.1977 69.592 37.717 69.9999 37.1925 69.9999Z" fill="#FFA500" fill-opacity="0.81"/>
<path d="M13.1259 67.8001H9.84807C9.23621 67.8001 8.75546 67.3048 8.75546 66.7075C8.75546 66.1102 9.25078 65.6149 9.84807 65.6149H12.0333V40.4703H9.84807C9.23621 40.4703 8.75546 39.9749 8.75546 39.3776C8.75546 38.7804 9.25078 38.285 9.84807 38.285H13.1259C13.7232 38.285 14.2185 38.7804 14.2185 39.3776V66.7221C14.2185 67.3194 13.7232 67.8001 13.1259 67.8001Z" fill="#FFA500" fill-opacity="0.81"/>
<path d="M42.6556 49.2112C42.1311 49.2112 41.6649 48.8179 41.5775 48.2789C41.4901 47.6816 41.898 47.128 42.4953 47.0406L63.6191 43.821C64.2164 43.719 64.77 44.1415 64.8574 44.7388C64.9448 45.3361 64.5369 45.8897 63.9396 45.9771L42.8158 49.1967C42.7575 49.2112 42.6993 49.2112 42.6556 49.2112Z" fill="#FFA500" fill-opacity="0.81"/>
<path d="M38.2851 53.5962C37.6878 53.5962 37.1925 53.1009 37.1925 52.5036C37.1925 51.9063 37.6878 51.4109 38.2851 51.4109C40.0916 51.4109 41.563 49.9396 41.563 48.1331C41.563 46.5306 40.4266 45.1758 38.8533 44.899C38.256 44.797 37.8626 44.2288 37.9646 43.6315C38.0666 43.0343 38.6348 42.6409 39.232 42.7429C41.8543 43.1945 43.7627 45.4671 43.7627 48.1331C43.7482 51.1341 41.3007 53.5962 38.2851 53.5962Z" fill="#FFA500" fill-opacity="0.81"/>
<path d="M39.0281 44.899C38.9553 44.899 38.8824 44.899 38.8241 44.8844L21.6629 41.5338C21.0656 41.4172 20.6868 40.8491 20.8033 40.2518C20.9199 39.6545 21.488 39.2757 22.0853 39.3923L39.2466 42.7429C39.8439 42.8595 40.2227 43.4276 40.1061 44.0249C40.0042 44.5494 39.538 44.899 39.0281 44.899Z" fill="#FFA500" fill-opacity="0.81"/>
<path d="M21.8668 41.5629H13.1259C12.514 41.5629 12.0333 41.0676 12.0333 40.4703C12.0333 39.873 12.5286 39.3777 13.1259 39.3777H21.8668C22.4641 39.3777 22.9594 39.873 22.9594 40.4703C22.9594 41.0676 22.4787 41.5629 21.8668 41.5629Z" fill="#FFA500" fill-opacity="0.81"/>
<path d="M37.8189 53.5671C37.7898 53.5671 37.7607 53.5671 37.7315 53.5671L23.9792 52.5036C23.3819 52.4599 22.9303 51.9354 22.974 51.3236C23.0177 50.7263 23.5421 50.2746 24.154 50.3184L37.9064 51.3818C38.5036 51.4255 38.9553 51.95 38.9116 52.5619C38.8678 53.13 38.3871 53.5671 37.8189 53.5671Z" fill="#FFA500" fill-opacity="0.81"/>
<path d="M63.7794 45.9917C63.2549 45.9917 62.7888 45.6129 62.7014 45.0739C62.5994 44.4766 63.0073 43.9084 63.6046 43.821C63.9105 43.7627 64.2164 43.7482 64.5369 43.7482C65.1342 43.7482 65.6296 44.2435 65.6296 44.8408C65.6296 45.4381 65.1342 45.9334 64.5369 45.9334C64.3476 45.9334 64.1582 45.948 63.9688 45.9771C63.8959 45.9917 63.8377 45.9917 63.7794 45.9917Z" fill="#FFA500" fill-opacity="0.81"/>
<path d="M38.2851 53.5962C38.0957 53.5962 37.8918 53.5816 37.7024 53.567C37.1051 53.4942 36.668 52.9552 36.7409 52.3579C36.8137 51.7606 37.3382 51.3235 37.95 51.3964C38.0666 51.4109 38.1686 51.4109 38.2851 51.4109C38.8824 51.4109 39.3777 51.9063 39.3777 52.5036C39.3777 53.1008 38.8824 53.5962 38.2851 53.5962Z" fill="#FFA500" fill-opacity="0.81"/>
<path d="M9.84807 70H1.09261C0.495317 70 0 69.5047 0 68.8928C0 68.2955 0.495317 67.8002 1.09261 67.8002H8.75546V38.2851H1.09261C0.495317 38.2851 0 37.7898 0 37.1779C0 36.5661 0.495317 36.0853 1.09261 36.0853H9.84807C10.4454 36.0853 10.9407 36.5806 10.9407 37.1779V68.8928C10.9407 69.5047 10.4454 70 9.84807 70Z" fill="#FFA500" fill-opacity="0.81"/>
</svg>
