<svg width="70" height="70" viewBox="0 0 70 70" fill="none" xmlns="http://www.w3.org/2000/svg">
<path d="M68.5126 33.9663C70.6712 31.5725 70.4716 27.8731 68.0772 25.7332C65.6828 23.5751 61.9824 23.7746 59.8419 26.1865C53.9648 32.7332 56.6494 29.7409 46.6909 40.8212V25.6788H57.1936C59.1345 25.6788 60.6945 24.1192 60.6945 22.1788V8.16062C60.6945 3.64508 57.0303 0 52.5317 0H8.16274C3.66416 0 0 3.66321 0 8.16062V66.5C0 68.4404 1.55999 70 3.50091 70H43.1718C45.1127 70 46.6727 68.4404 46.6727 66.5V58.2668L68.5126 33.9663ZM61.5652 27.728C62.3996 26.7668 63.6693 26.3497 64.9028 26.6036C66.1363 26.8575 67.1521 27.7642 67.533 28.9611C67.914 30.158 67.6237 31.4819 66.7712 32.4067L62.8712 36.7591C59.6605 33.8756 60.8577 34.9456 57.6652 32.0803L61.5652 27.728ZM58.3545 8.16062V22.1606C58.3545 22.7953 57.8285 23.3212 57.1936 23.3212H46.6909V8.16062C46.6909 4.93264 49.3029 2.32124 52.5317 2.32124C55.7424 2.33938 58.3545 4.95078 58.3545 8.16062ZM43.1718 67.6788H3.50091C2.86603 67.6788 2.33998 67.1529 2.33998 66.5181V8.16062C2.33998 4.93264 4.95206 2.33938 8.18088 2.32124H46.8178C45.2397 3.86269 44.3509 5.94819 44.3509 8.16062V43.3964L39.6528 48.6373C39.4714 46.8601 37.9839 45.5 36.1881 45.5V28H39.6165C40.3783 28.0181 41.1039 27.6554 41.5574 27.0389C42.0109 26.4223 42.1379 25.6244 41.8839 24.899L38.9997 16.7383C38.6551 15.7772 37.7481 15.1606 36.7323 15.1606H28.624C27.6082 15.1606 26.7012 15.7772 26.3566 16.7383L23.4724 24.899C23.2366 25.6244 23.3454 26.4223 23.7989 27.0389C24.2524 27.6554 24.978 28.0181 25.7398 28H29.1682V45.5C27.2273 45.5 25.6673 47.0596 25.6673 49V51.3394H22.1664V47.513C22.8919 47.0959 23.3273 46.3342 23.3273 45.5V43.4145C24.2524 42.5984 24.6696 41.3471 24.4338 40.1503C24.198 38.9352 23.3273 37.956 22.1664 37.5389V30.3212C22.1664 27.7461 20.0803 25.6606 17.5045 25.6606H11.6636C9.08785 25.6606 7.00181 27.7461 7.00181 30.3212V37.5389C5.84089 37.9378 4.9702 38.9352 4.73439 40.1503C4.49857 41.3653 4.91578 42.5984 5.84089 43.4145V45.5C5.84089 46.3342 6.29438 47.0959 7.00181 47.513V51.3394C6.34879 51.3394 5.84089 51.8653 5.84089 52.5C5.84089 53.1347 6.36693 53.6606 7.00181 53.6606H36.2788L32.8505 63H14.0036C13.3506 63 12.8427 63.5259 12.8427 64.1606C12.8427 64.8135 13.3687 65.3212 14.0036 65.3212H33.8481C34.3016 65.3212 34.7007 65.0674 34.9002 64.6503L44.3509 59.9896V66.5C44.3509 67.1528 43.8248 67.6788 43.1718 67.6788ZM42.9723 58.0674L35.8616 61.5855L38.5825 54.1503L42.9723 58.0674ZM25.7398 25.6606C25.631 25.6969 25.3408 26.5855 28.624 17.5L36.7867 17.5181L39.5983 25.6606H25.7398ZM31.5082 28H33.8481V45.5H31.5082V28ZM36.17 47.8394C36.8049 47.8394 37.3309 48.3653 37.3309 49V51.1943C37.1495 51.3938 38.2016 51.3212 27.9891 51.3212V48.9819C27.9891 48.329 28.5152 47.8212 29.15 47.8212H36.17V47.8394ZM21.0054 39.6606C21.6585 39.6606 22.1664 40.1865 22.1664 40.8212C22.1664 41.4741 21.6403 41.9819 21.0054 41.9819C20.3706 41.9819 19.8445 41.456 19.8445 40.8212C19.8445 40.1865 20.3706 39.6606 21.0054 39.6606ZM19.8445 37.557C18.8469 37.9016 18.085 38.6813 17.7222 39.6788H11.446C11.1013 38.6813 10.3213 37.9197 9.32366 37.557V30.3394C9.32366 29.0518 10.3757 28 11.6636 28H17.5045C18.7924 28 19.8445 29.0518 19.8445 30.3394V37.557ZM8.16274 39.6606C8.81576 39.6606 9.32366 40.1865 9.32366 40.8212C9.32366 41.4741 8.79762 41.9819 8.16274 41.9819C7.50972 41.9819 7.00181 41.456 7.00181 40.8212C7.00181 40.1865 7.52786 39.6606 8.16274 39.6606ZM11.446 42H17.7041C18.1938 43.3964 19.518 44.3212 20.9873 44.3394V45.5H8.16274V44.3394C9.65017 44.3212 10.9562 43.3964 11.446 42ZM9.3418 47.8394H11.4278L10.7204 51.3394H9.3418V47.8394ZM13.786 47.8394H15.3822L16.0897 51.3394H13.0967L13.786 47.8394ZM17.7585 47.8394H19.8445V51.3394H18.4659L17.7585 47.8394ZM44.9495 56.7073L39.7435 52.0285L56.1234 33.8031L61.3294 38.4819L44.9495 56.7073Z" fill="#FFA500" fill-opacity="0.81"/>
</svg>
