<svg width="68" height="70" viewBox="0 0 68 70" fill="none" xmlns="http://www.w3.org/2000/svg">
<path d="M66.8738 46.9506L60.1761 36.969V12.698C60.1761 10.6085 59.5439 8.55109 58.3387 6.71871C58.0028 6.22044 57.252 6.02755 56.6396 6.3008C56.0271 6.57405 55.79 7.18485 56.1259 7.68312C57.1335 9.2101 57.667 10.946 57.667 12.698V33.2239L54.9404 29.1573V12.698C54.9404 8.05281 50.2975 4.27555 44.5876 4.27555C38.8778 4.27555 34.2348 8.05281 34.2348 12.698V31.9219C33.2272 31.6969 31.943 31.8416 31.5083 31.9219V12.698C31.5083 6.83123 37.3762 2.04133 44.6074 2.04133C47.7883 2.04133 50.8507 2.98967 53.2413 4.69346C53.755 5.06315 54.5651 5.031 55.0195 4.59701C55.4739 4.1791 55.4344 3.52009 54.9009 3.1504C52.0164 1.12514 48.3613 0 44.5679 0C35.9537 0 28.9596 5.69001 28.9596 12.698V22.9851C27.6161 22.6315 26.1146 22.7279 24.7909 23.3065L12.9958 28.5465C10.7237 29.5591 9.22213 31.4237 9.0048 33.5132L1.9317 36.6475C0.706747 37.194 -0.0242724 38.2549 0.0152421 39.3961C0.0745139 40.5373 0.904319 41.5339 2.18854 42C2.18854 42 7.1081 43.4627 8.94553 45.054V45.0861C8.94553 46.8381 10.2693 48.3812 12.1462 49.0241L23.6647 66.1584C24.8304 67.8783 27.794 69.9839 31.6071 69.9839C33.1087 69.9839 34.5707 69.6785 35.934 69.0838L63.2978 56.9162C65.4118 55.9679 66.9529 54.4248 67.6246 52.5281C68.2964 50.6636 68.0395 48.6866 66.8738 46.9506ZM3.21592 40.1355C2.80102 39.9908 2.54417 39.6854 2.54417 39.3157C2.52442 38.946 2.74174 38.6246 3.13689 38.4478L8.94553 35.8599V42.4018C7.62179 41.5821 3.21592 40.1355 3.21592 40.1355ZM44.5679 6.31688C48.8947 6.31688 52.4115 9.17796 52.4115 12.698V25.3961L50.3568 22.3261C48.302 19.2721 43.5603 18.1309 39.8064 19.8025L36.744 21.1688V12.698C36.7243 9.17796 40.241 6.31688 44.5679 6.31688ZM36.9416 37.194C36.9416 39.0425 35.1041 40.5373 32.8321 40.5373C30.56 40.5373 28.7226 39.0425 28.7226 37.194C28.7226 35.3456 30.56 33.8507 32.8321 33.8507C35.1041 33.8668 36.9416 35.3617 36.9416 37.194ZM11.4745 34.0919C11.4745 32.5327 12.5216 31.1022 14.201 30.3467L25.9961 25.1068C27.0827 24.6246 28.1891 24.8175 28.9596 25.2514V32.8381C27.3 33.8186 26.2134 35.4099 26.2134 37.194C26.2134 38.0781 26.49 38.93 26.9444 39.6693C25.7392 39.4604 24.8501 38.6085 24.8501 37.5637V35.0884C24.8501 34.1883 24.3957 33.3203 23.5857 32.7095C22.7756 32.0827 21.7087 31.7612 20.6023 31.8094C18.4488 31.8898 16.7496 33.3685 16.7496 35.1688V45.1826C16.7496 45.7773 16.4138 47.3203 14.0231 47.3203C12.6204 47.3203 11.4942 46.2916 11.4942 45.1022V34.0919H11.4745ZM65.1945 51.9656C64.7005 53.3157 63.5941 54.4409 62.0728 55.116L34.709 67.2836C31.5676 68.682 27.5964 67.7336 25.8775 65.178L15.1888 49.2652C18.5673 48.5901 19.2786 46.3077 19.2786 45.1665V35.1527C19.2786 34.4615 19.9306 33.8507 20.7406 33.8507C21.9853 33.8507 22.341 34.7509 22.341 35.0884V37.5637C22.341 39.8783 24.7909 42.2572 28.9992 41.5821C30.0858 42.209 31.4095 42.5947 32.8518 42.5947C36.5069 42.5947 39.4705 40.1837 39.4705 37.2101C39.4705 35.4259 38.3839 33.8347 36.7242 32.8542V23.5316L40.9918 21.6349C43.5405 20.5098 46.7412 21.2652 48.1242 23.3387L64.661 47.9633C65.5106 49.1848 65.6884 50.6154 65.1945 51.9656Z" fill="#FFA500" fill-opacity="0.81"/>
</svg>
