<svg width="70" height="62" viewBox="0 0 70 62" fill="none" xmlns="http://www.w3.org/2000/svg">
<path d="M66.5019 18.8441H47.6236C46.692 18.8441 45.7985 19.2053 45.1521 19.8707L38.346 26.6768C37.6806 27.3232 37.3194 28.2168 37.3194 29.1483V30.5932L31.1597 26.8669C32.1293 25.1369 32.6426 23.1787 32.6426 21.1825V9.50953C32.6426 4.35744 28.4601 0.174927 23.308 0.174927H19.8099C18.346 0.174927 16.9582 0.859337 16.0837 2.03804C15.4943 1.58177 14.7529 1.33462 13.9924 1.33462C11.4068 1.33462 9.3346 3.42588 9.3346 5.99242V21.1635C9.3346 23.1597 9.84791 25.1179 10.8175 26.8479L3.36502 31.3536C1.29278 32.6464 0 34.9088 0 37.3612V44.5095C0 47.1521 0.817491 49.7187 2.3384 51.886V60.8593C2.3384 61.5057 2.85171 62.019 3.4981 62.019H66.5019C68.4411 62.019 70 60.4601 70 58.5209V22.3422C70 20.4031 68.4411 18.8441 66.5019 18.8441ZM21.0076 32.8365C21.7871 32.8365 22.5665 32.7605 23.346 32.6084V33.8251L22.5095 36.3536H19.5247L18.6882 33.8251V32.6084C19.4297 32.7605 20.2091 32.8365 21.0076 32.8365ZM19.7338 38.673H22.1863L23.27 48.5019L22.0152 49.1293L18.7452 48.4639L19.7338 38.673ZM23.327 51.0685L29.0684 48.1977C29.3156 48.0837 29.5817 48.0076 29.8479 48.0076C30.2852 48.0076 30.4943 48.5209 30.1901 48.8251L28.346 50.6692C28.0038 51.0114 27.9087 51.5057 28.0989 51.943C28.289 52.3803 28.7072 52.6654 29.1825 52.6654H37.1673C37.3764 52.6654 37.4335 52.9696 37.2243 53.0266L32.4905 54.6046C31.711 54.8708 30.9125 54.9848 30.0951 54.9848H23.346V51.0685H23.327ZM37.3384 33.3118V50.327H31.9772C32.6996 49.4905 32.8707 48.3118 32.4144 47.3042C31.9582 46.2966 30.9506 45.6502 29.8479 45.6502C29.2205 45.6502 28.5932 45.8023 28.0228 46.0875L25.4753 47.3612L24.4297 37.8745C24.4297 37.8745 24.4297 37.8745 24.4297 37.8555L25.5894 34.3574C25.6274 34.2434 25.6464 34.1103 25.6464 33.9962V31.8479C27.2433 31.1445 28.6692 30.0799 29.8099 28.7681L37.3384 33.3118ZM30.3422 21.1635C30.3422 26.3156 26.1597 30.4981 21.0076 30.4981C15.8555 30.4981 11.673 26.3156 11.673 21.1635V11.8289H11.8821C13.7452 11.8289 15.4943 10.8974 16.5399 9.35744C17.7567 10.9164 19.6198 11.8289 21.597 11.8289H30.3422V21.1635ZM19.8289 2.49432H23.327C27.1863 2.49432 30.3232 5.6312 30.3232 9.49052H21.5779C19.3156 9.49052 17.4905 7.66542 17.4905 5.40306V4.83272C17.5095 3.53995 18.5551 2.49432 19.8289 2.49432ZM13.9924 3.67303C14.6388 3.67303 15.1521 4.18633 15.1521 4.83272V6.20154C15.1521 8.02664 13.6692 9.49052 11.8441 9.50953H11.673V5.99242C11.673 4.71865 12.7186 3.67303 13.9924 3.67303ZM2.3384 37.3612C2.3384 35.7263 3.19392 34.2244 4.58175 33.3688L12.1673 28.7681C13.308 30.0989 14.7338 31.1445 16.3308 31.8479V33.9962C16.3308 34.1293 16.3498 34.2434 16.3878 34.3574L17.4905 37.6274L16.4449 47.9886C13.6692 47.4183 11.673 44.9848 11.673 42.1521H9.3346C9.3346 46.1065 12.1293 49.4905 15.9886 50.27L20.9886 51.2776V54.9848H12.8137C7.01521 54.9848 2.31939 50.289 2.31939 44.4905V37.3612H2.3384ZM4.65779 54.3955C6.95818 56.2966 9.84791 57.3422 12.8327 57.3422H30.076C31.1407 57.3422 32.2053 57.1711 33.2129 56.8289L37.3384 55.4601V58.5019C37.3384 58.9012 37.4144 59.3004 37.5475 59.6616H4.65779V54.3955ZM67.6806 58.5019C67.6806 59.1483 67.1673 59.6616 66.5209 59.6616H40.8555C40.2091 59.6616 39.6958 59.1483 39.6958 58.5019V29.1293C39.6958 28.8251 39.8099 28.5209 40.038 28.3118L46.8441 21.5057C47.0722 21.2776 47.3574 21.1635 47.6616 21.1635H66.5399C67.1863 21.1635 67.6996 21.6768 67.6996 22.3232V58.5019H67.6806Z" fill="#FFA500" fill-opacity="0.81"/>
</svg>
